# xmcd
#
# Track frame offsets: 
#        150
#        7409
#        30574
#        50308
#        69580
#        96430
#        110048
#        126728
#        143896
#        157208
#
# Disc length: 2342 seconds
#
# Revision: 0
# Processed by: cddbd v1.5.1PL0 Copyright (c) Steve Scherf et al.
# Submitted via: ExactAudioCopy v0.95a3
#
DISCID=9b09240a
DTITLE=Tony Lee King - Tony Lee King Unplugged
DYEAR=1900
DGENRE=Pop
TTITLE0=Intro
TTITLE1=In the Mood
TTITLE2=Layla
TTITLE3=Doc of the Bay
TTITLE4=Little Wing
TTITLE5=Wise Man
TTITLE6=Stand by me
TTITLE7=You're my Everything
TTITLE8=Always on my Mind
TTITLE9=Tears in Heaven
EXTD=
EXTT0=
EXTT1=
EXTT2=
EXTT3=
EXTT4=
EXTT5=
EXTT6=
EXTT7=
EXTT8=
EXTT9=
PLAYORDER=
